<svg width="991" height="552" viewBox="0 0 991 552" fill="none" xmlns="http://www.w3.org/2000/svg">
<g filter="url(#filter0_i)">
<circle cx="488.5" cy="271.5" r="271.5" fill="#FFE81B"/>
</g>
<g filter="url(#filter1_i)">
<path d="M697.242 445.106C660.259 489.574 610.041 521.07 553.907 535.004C497.773 548.937 438.656 544.581 385.171 522.568C331.686 500.556 286.628 462.039 256.563 412.63C226.498 363.22 212.998 305.501 218.029 247.882C223.06 190.264 246.36 135.758 284.534 92.3072C322.707 48.8563 373.759 18.7314 430.25 6.32238C486.741 -6.08664 545.718 -0.131263 598.588 23.3207C651.457 46.7726 695.456 86.4955 724.172 136.701L488.5 271.5L697.242 445.106Z" fill="#F61067"/>
</g>
<g filter="url(#filter2_i)">
<path d="M703.859 436.826C675.741 473.453 638.746 502.304 596.372 520.65C553.997 538.997 507.643 546.233 461.693 541.673C415.743 537.114 371.715 520.911 333.772 494.595C295.829 468.28 265.224 432.721 244.852 391.283C224.48 349.844 215.013 303.894 217.347 257.777C219.681 211.661 233.738 166.901 258.19 127.731C282.642 88.5606 316.68 56.2739 357.086 33.9235C397.492 11.5731 442.931 -0.1025 489.107 0.00067778L488.5 271.5L703.859 436.826Z" fill="#5E239D"/>
</g>
<g filter="url(#filter3_i)">
<path d="M705.013 435.313C664.862 488.38 606.62 524.854 541.348 537.807C476.076 550.76 408.32 539.29 350.947 505.576C293.575 471.862 250.583 418.251 230.135 354.925C209.687 291.6 213.209 222.97 240.03 162.07L488.5 271.5L705.013 435.313Z" fill="#F00000"/>
</g>
<g filter="url(#filter4_i)">
<path d="M715.022 421.166C675.328 481.244 613.394 523.092 542.845 537.505C472.296 551.919 398.911 537.716 338.834 498.022L488.5 271.5L715.022 421.166Z" fill="#00F0B5"/>
</g>
<circle cx="488.5" cy="271.5" r="171.5" fill="white"/>
<path d="M23.0551 39.578C21.8884 39.578 20.9504 39.97 20.2411 40.754C19.5411 41.5287 19.1911 42.574 19.1911 43.89C19.1911 45.206 19.5411 46.256 20.2411 47.04C20.9504 47.8147 21.8884 48.202 23.0551 48.202C24.2124 48.202 25.1411 47.8147 25.8411 47.04C26.5504 46.256 26.9051 45.206 26.9051 43.89C26.9051 42.574 26.5504 41.5287 25.8411 40.754C25.1411 39.97 24.2124 39.578 23.0551 39.578ZM26.6671 47.712C25.7617 48.664 24.5577 49.14 23.0551 49.14C21.5524 49.14 20.3437 48.664 19.4291 47.712C18.5144 46.7507 18.0571 45.4767 18.0571 43.89C18.0571 42.3033 18.5144 41.034 19.4291 40.082C20.3437 39.1207 21.5524 38.64 23.0551 38.64C24.5577 38.64 25.7617 39.1207 26.6671 40.082C27.5817 41.034 28.0391 42.3033 28.0391 43.89C28.0391 45.4767 27.5817 46.7507 26.6671 47.712ZM33.0506 49.14C31.996 49.14 31.212 48.7153 30.6986 47.866H30.6706V52.08H29.6486V41.72H30.6286L30.6426 42.952H30.6706C31.184 42.0373 31.9773 41.58 33.0506 41.58C33.9653 41.58 34.684 41.9067 35.2066 42.56C35.7293 43.204 35.9906 44.1373 35.9906 45.36C35.9906 46.5547 35.72 47.4833 35.1786 48.146C34.6466 48.8087 33.9373 49.14 33.0506 49.14ZM34.9826 45.36C34.9826 44.408 34.7913 43.68 34.4086 43.176C34.0353 42.672 33.508 42.42 32.8266 42.42C32.1826 42.42 31.66 42.672 31.2586 43.176C30.8666 43.68 30.6706 44.3753 30.6706 45.262V45.458C30.6706 46.3633 30.8713 47.0633 31.2726 47.558C31.674 48.0527 32.192 48.3 32.8266 48.3C33.4893 48.3 34.012 48.048 34.3946 47.544C34.7866 47.0307 34.9826 46.3027 34.9826 45.36ZM37.674 41.72H42.994V42.602H38.752V49H37.674V41.72ZM47.2657 41.58C48.283 41.58 49.011 41.79 49.4497 42.21C49.8883 42.63 50.1077 43.3207 50.1077 44.282V47.04C50.1077 47.7027 50.1777 48.356 50.3177 49H49.3377C49.263 48.636 49.2163 48.2067 49.1977 47.712H49.1697C48.9177 48.16 48.5537 48.51 48.0777 48.762C47.6017 49.014 47.065 49.14 46.4677 49.14C45.7957 49.14 45.259 48.9533 44.8577 48.58C44.4563 48.1973 44.2557 47.684 44.2557 47.04C44.2557 46.228 44.6103 45.584 45.3197 45.108C46.029 44.6227 47.037 44.38 48.3437 44.38H49.0857V44.31C49.0857 43.6007 48.9503 43.1107 48.6797 42.84C48.4183 42.56 47.947 42.42 47.2657 42.42C46.3883 42.42 45.5717 42.6347 44.8157 43.064L44.6337 42.238C45.4363 41.7993 46.3137 41.58 47.2657 41.58ZM45.2637 46.998C45.2637 47.418 45.3943 47.7493 45.6557 47.992C45.917 48.2253 46.267 48.342 46.7057 48.342C47.3497 48.342 47.905 48.1133 48.3717 47.656C48.8477 47.1893 49.0857 46.62 49.0857 45.948V45.164H48.3437C47.3637 45.164 46.603 45.332 46.0617 45.668C45.5297 45.9947 45.2637 46.438 45.2637 46.998ZM53.3676 45.5V49H52.2756V41.72H53.3676V44.688H57.4976V41.72H58.5896V49H57.4976V45.5H53.3676ZM61.7478 47.572H61.7758L65.9198 41.72H67.0678V49H66.0038V43.148H65.9898L61.8318 49H60.6838V41.72H61.7478V47.572ZM71.428 42.392C70.7094 42.392 69.9347 42.5553 69.104 42.882L68.852 42.098C69.7294 41.7527 70.616 41.58 71.512 41.58C72.5107 41.58 73.2947 41.748 73.864 42.084C74.4334 42.42 74.718 42.8493 74.718 43.372C74.718 43.7547 74.5594 44.1047 74.242 44.422C73.934 44.7393 73.486 44.9633 72.898 45.094V45.122C73.542 45.234 74.0227 45.472 74.34 45.836C74.6667 46.1907 74.83 46.592 74.83 47.04C74.83 47.6933 74.5407 48.2067 73.962 48.58C73.3927 48.9533 72.576 49.14 71.512 49.14C70.5974 49.14 69.678 48.9673 68.754 48.622L69.006 47.838C69.8554 48.146 70.6767 48.3 71.47 48.3C72.9914 48.3 73.752 47.8427 73.752 46.928C73.752 46.4613 73.514 46.1113 73.038 45.878C72.562 45.6447 71.778 45.528 70.686 45.528H70.07V44.702H70.686C72.6554 44.702 73.64 44.3053 73.64 43.512C73.64 42.7653 72.9027 42.392 71.428 42.392ZM79.1758 41.58C80.1932 41.58 80.9212 41.79 81.3598 42.21C81.7985 42.63 82.0178 43.3207 82.0178 44.282V47.04C82.0178 47.7027 82.0878 48.356 82.2278 49H81.2478C81.1732 48.636 81.1265 48.2067 81.1078 47.712H81.0798C80.8278 48.16 80.4638 48.51 79.9878 48.762C79.5118 49.014 78.9752 49.14 78.3778 49.14C77.7058 49.14 77.1692 48.9533 76.7678 48.58C76.3665 48.1973 76.1658 47.684 76.1658 47.04C76.1658 46.228 76.5205 45.584 77.2298 45.108C77.9392 44.6227 78.9472 44.38 80.2538 44.38H80.9958V44.31C80.9958 43.6007 80.8605 43.1107 80.5898 42.84C80.3285 42.56 79.8572 42.42 79.1758 42.42C78.2985 42.42 77.4818 42.6347 76.7258 43.064L76.5438 42.238C77.3465 41.7993 78.2238 41.58 79.1758 41.58ZM77.1738 46.998C77.1738 47.418 77.3045 47.7493 77.5658 47.992C77.8272 48.2253 78.1772 48.342 78.6158 48.342C79.2598 48.342 79.8152 48.1133 80.2818 47.656C80.7578 47.1893 80.9958 46.62 80.9958 45.948V45.164H80.2538C79.2738 45.164 78.5132 45.332 77.9718 45.668C77.4398 45.9947 77.1738 46.438 77.1738 46.998ZM90.3457 48.132H91.5637V50.68H90.6257V49H84.1857V41.72H85.2077V48.132H89.3237V41.72H90.3457V48.132ZM94.1638 47.572H94.1918L98.3358 41.72H99.4838V49H98.4198V43.148H98.4058L94.2478 49H93.0998V41.72H94.1638V47.572ZM103.256 45.528C102.696 45.4067 102.234 45.1967 101.87 44.898C101.515 44.59 101.338 44.1793 101.338 43.666C101.338 42.3033 102.435 41.622 104.628 41.622C105.403 41.622 106.159 41.6733 106.896 41.776V49H105.832V45.878H104.866C104.353 45.878 103.993 45.9433 103.788 46.074C103.592 46.1953 103.368 46.5127 103.116 47.026L102.178 49H101.1L102.122 46.942C102.346 46.494 102.537 46.172 102.696 45.976C102.864 45.78 103.051 45.64 103.256 45.556V45.528ZM105.832 45.094V42.504C105.459 42.448 105.071 42.42 104.67 42.42C103.13 42.42 102.36 42.8633 102.36 43.75C102.36 44.646 103.181 45.094 104.824 45.094H105.832ZM116.463 49.14C115.408 49.14 114.624 48.7153 114.111 47.866H114.083V52.08H113.061V41.72H114.041L114.055 42.952H114.083C114.596 42.0373 115.389 41.58 116.463 41.58C117.377 41.58 118.096 41.9067 118.619 42.56C119.141 43.204 119.403 44.1373 119.403 45.36C119.403 46.5547 119.132 47.4833 118.591 48.146C118.059 48.8087 117.349 49.14 116.463 49.14ZM118.395 45.36C118.395 44.408 118.203 43.68 117.821 43.176C117.447 42.672 116.92 42.42 116.239 42.42C115.595 42.42 115.072 42.672 114.671 43.176C114.279 43.68 114.083 44.3753 114.083 45.262V45.458C114.083 46.3633 114.283 47.0633 114.685 47.558C115.086 48.0527 115.604 48.3 116.239 48.3C116.901 48.3 117.424 48.048 117.807 47.544C118.199 47.0307 118.395 46.3027 118.395 45.36ZM123.746 41.58C124.763 41.58 125.491 41.79 125.93 42.21C126.369 42.63 126.588 43.3207 126.588 44.282V47.04C126.588 47.7027 126.658 48.356 126.798 49H125.818C125.743 48.636 125.697 48.2067 125.678 47.712H125.65C125.398 48.16 125.034 48.51 124.558 48.762C124.082 49.014 123.545 49.14 122.948 49.14C122.276 49.14 121.739 48.9533 121.338 48.58C120.937 48.1973 120.736 47.684 120.736 47.04C120.736 46.228 121.091 45.584 121.8 45.108C122.509 44.6227 123.517 44.38 124.824 44.38H125.566V44.31C125.566 43.6007 125.431 43.1107 125.16 42.84C124.899 42.56 124.427 42.42 123.746 42.42C122.869 42.42 122.052 42.6347 121.296 43.064L121.114 42.238C121.917 41.7993 122.794 41.58 123.746 41.58ZM121.744 46.998C121.744 47.418 121.875 47.7493 122.136 47.992C122.397 48.2253 122.747 48.342 123.186 48.342C123.83 48.342 124.385 48.1133 124.852 47.656C125.328 47.1893 125.566 46.62 125.566 45.948V45.164H124.824C123.844 45.164 123.083 45.332 122.542 45.668C122.01 45.9947 121.744 46.438 121.744 46.998ZM131.906 49.14C130.889 49.14 130.095 48.818 129.526 48.174C128.966 47.5207 128.686 46.5967 128.686 45.402V42.322C128.686 41.0247 128.999 40.0867 129.624 39.508C130.259 38.9293 131.267 38.64 132.648 38.64C133.357 38.64 134.034 38.5933 134.678 38.5V39.34C134.081 39.4333 133.404 39.48 132.648 39.48C131.556 39.48 130.791 39.69 130.352 40.11C129.923 40.5207 129.708 41.244 129.708 42.28V43.078H129.736C130.24 42.266 131.043 41.86 132.144 41.86C132.993 41.86 133.684 42.1913 134.216 42.854C134.757 43.5073 135.028 44.3893 135.028 45.5C135.028 46.6573 134.753 47.5533 134.202 48.188C133.651 48.8227 132.886 49.14 131.906 49.14ZM134.02 45.5C134.02 44.632 133.824 43.9507 133.432 43.456C133.049 42.952 132.541 42.7 131.906 42.7C131.234 42.7 130.697 42.9333 130.296 43.4C129.904 43.8667 129.708 44.52 129.708 45.36V45.542C129.708 46.382 129.904 47.054 130.296 47.558C130.697 48.0527 131.22 48.3 131.864 48.3C132.536 48.3 133.063 48.0573 133.446 47.572C133.829 47.0773 134.02 46.3867 134.02 45.5ZM141.594 43.204C141.174 42.6813 140.595 42.42 139.858 42.42C139.121 42.42 138.537 42.6813 138.108 43.204C137.688 43.7173 137.478 44.436 137.478 45.36C137.478 46.284 137.688 47.0073 138.108 47.53C138.537 48.0433 139.121 48.3 139.858 48.3C140.595 48.3 141.174 48.0433 141.594 47.53C142.023 47.0073 142.238 46.284 142.238 45.36C142.238 44.436 142.023 43.7173 141.594 43.204ZM142.35 48.118C141.725 48.7993 140.894 49.14 139.858 49.14C138.822 49.14 137.991 48.7993 137.366 48.118C136.741 47.4367 136.428 46.5173 136.428 45.36C136.428 44.2027 136.741 43.2833 137.366 42.602C137.991 41.9207 138.822 41.58 139.858 41.58C140.894 41.58 141.725 41.9207 142.35 42.602C142.975 43.2833 143.288 44.2027 143.288 45.36C143.288 46.5173 142.975 47.4367 142.35 48.118ZM150.909 42.574H148.249V49H147.143V42.574H144.483V41.72H150.909V42.574ZM159.446 49V41.72H160.454V49H159.446ZM152.586 41.72H153.608V43.96C154.009 43.8853 154.439 43.848 154.896 43.848C155.997 43.848 156.833 44.0767 157.402 44.534C157.971 44.982 158.256 45.6073 158.256 46.41C158.256 48.23 157.089 49.14 154.756 49.14C153.981 49.14 153.258 49.07 152.586 48.93V41.72ZM153.608 44.8V48.174C153.981 48.258 154.387 48.3 154.826 48.3C156.441 48.3 157.248 47.67 157.248 46.41C157.248 45.262 156.417 44.688 154.756 44.688C154.345 44.688 153.963 44.7253 153.608 44.8Z" fill="#333333"/>
<path d="M19.1566 318H18.0366V308.718H14.0186V313.058C14.0186 314.393 13.9159 315.41 13.7106 316.11C13.5053 316.801 13.1693 317.295 12.7026 317.594C12.2453 317.893 11.5686 318.075 10.6726 318.14L10.6166 317.23C10.9899 317.202 11.2933 317.155 11.5266 317.09C11.7599 317.015 11.9746 316.894 12.1706 316.726C12.3666 316.558 12.5113 316.32 12.6046 316.012C12.6979 315.695 12.7679 315.303 12.8146 314.836C12.8706 314.369 12.8986 313.777 12.8986 313.058V307.78H19.1566V318ZM22.4568 316.572H22.4848L26.6288 310.72H27.7768V318H26.7128V312.148H26.6988L22.5408 318H21.3928V310.72H22.4568V316.572ZM31.283 317.16H35.133V311.56H32.123C32.123 312.447 32.123 313.067 32.123 313.422C32.123 313.777 32.109 314.192 32.081 314.668C32.0623 315.135 32.039 315.438 32.011 315.578C31.9923 315.709 31.9457 315.895 31.871 316.138C31.7963 316.381 31.717 316.558 31.633 316.67C31.5583 316.773 31.4417 316.936 31.283 317.16ZM30.065 317.16C30.2703 316.908 30.415 316.731 30.499 316.628C30.583 316.516 30.6763 316.339 30.779 316.096C30.8817 315.844 30.9423 315.653 30.961 315.522C30.989 315.382 31.017 315.088 31.045 314.64C31.0823 314.183 31.101 313.772 31.101 313.408C31.101 313.035 31.101 312.419 31.101 311.56V310.72H36.155V317.16H37.135V319.68H36.113V318H30.415V319.68H29.393V317.16H30.065ZM39.3024 313.94H43.7824C43.773 313.128 43.577 312.503 43.1944 312.064C42.8117 311.625 42.2844 311.406 41.6124 311.406C40.9124 311.406 40.357 311.63 39.9464 312.078C39.545 312.517 39.3304 313.137 39.3024 313.94ZM39.3024 314.752C39.321 315.545 39.5637 316.171 40.0304 316.628C40.497 317.085 41.1037 317.314 41.8504 317.314C42.569 317.314 43.283 317.127 43.9924 316.754L44.2724 317.552C43.4884 317.944 42.6484 318.14 41.7524 318.14C40.707 318.14 39.8624 317.799 39.2184 317.118C38.5744 316.437 38.2524 315.517 38.2524 314.36C38.2524 313.184 38.551 312.26 39.1484 311.588C39.755 310.916 40.5764 310.58 41.6124 310.58C42.6204 310.58 43.3997 310.902 43.9504 311.546C44.5104 312.181 44.7904 313.095 44.7904 314.29C44.7904 314.411 44.781 314.565 44.7624 314.752H39.3024ZM49.869 318.14C48.8143 318.14 48.0303 317.715 47.517 316.866H47.489V321.08H46.467V310.72H47.447L47.461 311.952H47.489C48.0023 311.037 48.7957 310.58 49.869 310.58C50.7837 310.58 51.5023 310.907 52.025 311.56C52.5477 312.204 52.809 313.137 52.809 314.36C52.809 315.555 52.5383 316.483 51.997 317.146C51.465 317.809 50.7557 318.14 49.869 318.14ZM51.801 314.36C51.801 313.408 51.6097 312.68 51.227 312.176C50.8537 311.672 50.3263 311.42 49.645 311.42C49.001 311.42 48.4783 311.672 48.077 312.176C47.685 312.68 47.489 313.375 47.489 314.262V314.458C47.489 315.363 47.6897 316.063 48.091 316.558C48.4923 317.053 49.0103 317.3 49.645 317.3C50.3077 317.3 50.8303 317.048 51.213 316.544C51.605 316.031 51.801 315.303 51.801 314.36ZM57.6844 311.434C56.863 311.434 56.2237 311.691 55.7664 312.204C55.309 312.708 55.0804 313.427 55.0804 314.36C55.0804 315.256 55.3184 315.97 55.7944 316.502C56.2797 317.034 56.9097 317.3 57.6844 317.3C58.3377 317.3 58.963 317.141 59.5604 316.824L59.8404 317.65C59.1404 317.977 58.4077 318.14 57.6424 318.14C56.5597 318.14 55.6824 317.799 55.0104 317.118C54.3384 316.427 54.0024 315.508 54.0024 314.36C54.0024 313.175 54.3244 312.251 54.9684 311.588C55.6124 310.916 56.5037 310.58 57.6424 310.58C58.4077 310.58 59.1404 310.743 59.8404 311.07L59.5604 311.924C58.935 311.597 58.3097 311.434 57.6844 311.434ZM62.9128 313.8L66.4268 310.72H67.7708L63.7248 314.206L67.8828 318H66.5528L62.9128 314.626H62.8988V318H61.8068V310.72H62.8988V313.8H62.9128ZM70.6228 316.572H70.6508L74.7948 310.72H75.9428V318H74.8788V312.148H74.8648L70.7068 318H69.5588V310.72H70.6228V316.572ZM78.609 313.94H83.089C83.0797 313.128 82.8837 312.503 82.501 312.064C82.1184 311.625 81.591 311.406 80.919 311.406C80.219 311.406 79.6637 311.63 79.253 312.078C78.8517 312.517 78.637 313.137 78.609 313.94ZM78.609 314.752C78.6277 315.545 78.8704 316.171 79.337 316.628C79.8037 317.085 80.4104 317.314 81.157 317.314C81.8757 317.314 82.5897 317.127 83.299 316.754L83.579 317.552C82.795 317.944 81.955 318.14 81.059 318.14C80.0137 318.14 79.169 317.799 78.525 317.118C77.881 316.437 77.559 315.517 77.559 314.36C77.559 313.184 77.8577 312.26 78.455 311.588C79.0617 310.916 79.883 310.58 80.919 310.58C81.927 310.58 82.7064 310.902 83.257 311.546C83.817 312.181 84.097 313.095 84.097 314.29C84.097 314.411 84.0877 314.565 84.069 314.752H78.609ZM90.9402 313.8L94.4542 310.72H95.7982L91.7522 314.206L95.9102 318H94.5802L90.9402 314.626H90.9262V318H89.8342V310.72H90.9262V313.8H90.9402ZM100.246 310.58C101.263 310.58 101.991 310.79 102.43 311.21C102.869 311.63 103.088 312.321 103.088 313.282V316.04C103.088 316.703 103.158 317.356 103.298 318H102.318C102.243 317.636 102.197 317.207 102.178 316.712H102.15C101.898 317.16 101.534 317.51 101.058 317.762C100.582 318.014 100.045 318.14 99.4481 318.14C98.7761 318.14 98.2395 317.953 97.8381 317.58C97.4368 317.197 97.2361 316.684 97.2361 316.04C97.2361 315.228 97.5908 314.584 98.3001 314.108C99.0095 313.623 100.017 313.38 101.324 313.38H102.066V313.31C102.066 312.601 101.931 312.111 101.66 311.84C101.399 311.56 100.927 311.42 100.246 311.42C99.3688 311.42 98.5521 311.635 97.7961 312.064L97.6141 311.238C98.4168 310.799 99.2941 310.58 100.246 310.58ZM98.2441 315.998C98.2441 316.418 98.3748 316.749 98.6361 316.992C98.8975 317.225 99.2475 317.342 99.6861 317.342C100.33 317.342 100.885 317.113 101.352 316.656C101.828 316.189 102.066 315.62 102.066 314.948V314.164H101.324C100.344 314.164 99.5835 314.332 99.0421 314.668C98.5101 314.995 98.2441 315.438 98.2441 315.998ZM110.016 310.72H111.038V318H110.016V315.55C109.391 315.849 108.658 315.998 107.818 315.998C106.81 315.998 106.105 315.821 105.704 315.466C105.312 315.102 105.116 314.467 105.116 313.562V310.72H106.124V313.366C106.124 314.066 106.25 314.537 106.502 314.78C106.763 315.013 107.258 315.13 107.986 315.13C108.779 315.13 109.456 314.985 110.016 314.696V310.72ZM113.705 313.94H118.185C118.175 313.128 117.979 312.503 117.597 312.064C117.214 311.625 116.687 311.406 116.015 311.406C115.315 311.406 114.759 311.63 114.349 312.078C113.947 312.517 113.733 313.137 113.705 313.94ZM113.705 314.752C113.723 315.545 113.966 316.171 114.433 316.628C114.899 317.085 115.506 317.314 116.253 317.314C116.971 317.314 117.685 317.127 118.395 316.754L118.675 317.552C117.891 317.944 117.051 318.14 116.155 318.14C115.109 318.14 114.265 317.799 113.621 317.118C112.977 316.437 112.655 315.517 112.655 314.36C112.655 313.184 112.953 312.26 113.551 311.588C114.157 310.916 114.979 310.58 116.015 310.58C117.023 310.58 117.802 310.902 118.353 311.546C118.913 312.181 119.193 313.095 119.193 314.29C119.193 314.411 119.183 314.565 119.165 314.752H113.705ZM124.061 311.434C123.24 311.434 122.601 311.691 122.143 312.204C121.686 312.708 121.457 313.427 121.457 314.36C121.457 315.256 121.695 315.97 122.171 316.502C122.657 317.034 123.287 317.3 124.061 317.3C124.715 317.3 125.34 317.141 125.937 316.824L126.217 317.65C125.517 317.977 124.785 318.14 124.019 318.14C122.937 318.14 122.059 317.799 121.387 317.118C120.715 316.427 120.379 315.508 120.379 314.36C120.379 313.175 120.701 312.251 121.345 311.588C121.989 310.916 122.881 310.58 124.019 310.58C124.785 310.58 125.517 310.743 126.217 311.07L125.937 311.924C125.312 311.597 124.687 311.434 124.061 311.434ZM134.19 311.574H131.53V318H130.424V311.574H127.764V310.72H134.19V311.574ZM136.931 317.272C137.277 317.328 137.655 317.356 138.065 317.356C139.624 317.356 140.403 316.847 140.403 315.83C140.403 314.906 139.577 314.444 137.925 314.444H136.931V317.272ZM136.931 313.744H137.911C138.583 313.744 139.106 313.632 139.479 313.408C139.853 313.184 140.039 312.876 140.039 312.484C140.039 311.737 139.353 311.364 137.981 311.364C137.617 311.364 137.267 311.392 136.931 311.448V313.744ZM141.439 315.9C141.439 317.365 140.301 318.098 138.023 318.098C137.193 318.098 136.474 318.047 135.867 317.944V310.776C136.53 310.673 137.211 310.622 137.911 310.622C139.041 310.622 139.843 310.79 140.319 311.126C140.805 311.453 141.047 311.873 141.047 312.386C141.047 312.806 140.903 313.161 140.613 313.45C140.324 313.73 139.918 313.926 139.395 314.038V314.052C140.058 314.155 140.562 314.369 140.907 314.696C141.262 315.013 141.439 315.415 141.439 315.9ZM145.773 310.58C146.791 310.58 147.519 310.79 147.957 311.21C148.396 311.63 148.615 312.321 148.615 313.282V316.04C148.615 316.703 148.685 317.356 148.825 318H147.845C147.771 317.636 147.724 317.207 147.705 316.712H147.677C147.425 317.16 147.061 317.51 146.585 317.762C146.109 318.014 145.573 318.14 144.975 318.14C144.303 318.14 143.767 317.953 143.365 317.58C142.964 317.197 142.763 316.684 142.763 316.04C142.763 315.228 143.118 314.584 143.827 314.108C144.537 313.623 145.545 313.38 146.851 313.38H147.593V313.31C147.593 312.601 147.458 312.111 147.187 311.84C146.926 311.56 146.455 311.42 145.773 311.42C144.896 311.42 144.079 311.635 143.323 312.064L143.141 311.238C143.944 310.799 144.821 310.58 145.773 310.58ZM143.771 315.998C143.771 316.418 143.902 316.749 144.163 316.992C144.425 317.225 144.775 317.342 145.213 317.342C145.857 317.342 146.413 317.113 146.879 316.656C147.355 316.189 147.593 315.62 147.593 314.948V314.164H146.851C145.871 314.164 145.111 314.332 144.569 314.668C144.037 314.995 143.771 315.438 143.771 315.998Z" fill="#333333"/>
<path d="M0.5 551H331.5L402.5 480" stroke="#666666" stroke-width="2"/>
<path d="M991 333H796.5L723 263" stroke="#666666" stroke-width="2"/>
<path d="M819.94 318V309.656H819.912L816.748 314.962H815.712L812.548 309.656H812.52V318H811.442V307.78H812.576L816.216 313.94H816.244L819.884 307.78H821.06V318H819.94ZM827.982 312.204C827.562 311.681 826.983 311.42 826.246 311.42C825.509 311.42 824.925 311.681 824.496 312.204C824.076 312.717 823.866 313.436 823.866 314.36C823.866 315.284 824.076 316.007 824.496 316.53C824.925 317.043 825.509 317.3 826.246 317.3C826.983 317.3 827.562 317.043 827.982 316.53C828.411 316.007 828.626 315.284 828.626 314.36C828.626 313.436 828.411 312.717 827.982 312.204ZM828.738 317.118C828.113 317.799 827.282 318.14 826.246 318.14C825.21 318.14 824.379 317.799 823.754 317.118C823.129 316.437 822.816 315.517 822.816 314.36C822.816 313.203 823.129 312.283 823.754 311.602C824.379 310.921 825.21 310.58 826.246 310.58C827.282 310.58 828.113 310.921 828.738 311.602C829.363 312.283 829.676 313.203 829.676 314.36C829.676 315.517 829.363 316.437 828.738 317.118ZM832.69 317.16H836.54V311.56H833.53C833.53 312.447 833.53 313.067 833.53 313.422C833.53 313.777 833.516 314.192 833.488 314.668C833.47 315.135 833.446 315.438 833.418 315.578C833.4 315.709 833.353 315.895 833.278 316.138C833.204 316.381 833.124 316.558 833.04 316.67C832.966 316.773 832.849 316.936 832.69 317.16ZM831.472 317.16C831.678 316.908 831.822 316.731 831.906 316.628C831.99 316.516 832.084 316.339 832.186 316.096C832.289 315.844 832.35 315.653 832.368 315.522C832.396 315.382 832.424 315.088 832.452 314.64C832.49 314.183 832.508 313.772 832.508 313.408C832.508 313.035 832.508 312.419 832.508 311.56V310.72H837.562V317.16H838.542V319.68H837.52V318H831.822V319.68H830.8V317.16H831.472ZM840.71 313.94H845.19C845.18 313.128 844.984 312.503 844.602 312.064C844.219 311.625 843.692 311.406 843.02 311.406C842.32 311.406 841.764 311.63 841.354 312.078C840.952 312.517 840.738 313.137 840.71 313.94ZM840.71 314.752C840.728 315.545 840.971 316.171 841.438 316.628C841.904 317.085 842.511 317.314 843.258 317.314C843.976 317.314 844.69 317.127 845.4 316.754L845.68 317.552C844.896 317.944 844.056 318.14 843.16 318.14C842.114 318.14 841.27 317.799 840.626 317.118C839.982 316.437 839.66 315.517 839.66 314.36C839.66 313.184 839.958 312.26 840.556 311.588C841.162 310.916 841.984 310.58 843.02 310.58C844.028 310.58 844.807 310.902 845.358 311.546C845.918 312.181 846.198 313.095 846.198 314.29C846.198 314.411 846.188 314.565 846.17 314.752H840.71ZM851.276 318.14C850.222 318.14 849.438 317.715 848.924 316.866H848.896V321.08H847.874V310.72H848.854L848.868 311.952H848.896C849.41 311.037 850.203 310.58 851.276 310.58C852.191 310.58 852.91 310.907 853.432 311.56C853.955 312.204 854.216 313.137 854.216 314.36C854.216 315.555 853.946 316.483 853.404 317.146C852.872 317.809 852.163 318.14 851.276 318.14ZM853.208 314.36C853.208 313.408 853.017 312.68 852.634 312.176C852.261 311.672 851.734 311.42 851.052 311.42C850.408 311.42 849.886 311.672 849.484 312.176C849.092 312.68 848.896 313.375 848.896 314.262V314.458C848.896 315.363 849.097 316.063 849.498 316.558C849.9 317.053 850.418 317.3 851.052 317.3C851.715 317.3 852.238 317.048 852.62 316.544C853.012 316.031 853.208 315.303 853.208 314.36ZM858.56 310.58C859.577 310.58 860.305 310.79 860.744 311.21C861.182 311.63 861.402 312.321 861.402 313.282V316.04C861.402 316.703 861.472 317.356 861.612 318H860.632C860.557 317.636 860.51 317.207 860.492 316.712H860.464C860.212 317.16 859.848 317.51 859.372 317.762C858.896 318.014 858.359 318.14 857.762 318.14C857.09 318.14 856.553 317.953 856.152 317.58C855.75 317.197 855.55 316.684 855.55 316.04C855.55 315.228 855.904 314.584 856.614 314.108C857.323 313.623 858.331 313.38 859.638 313.38H860.38V313.31C860.38 312.601 860.244 312.111 859.974 311.84C859.712 311.56 859.241 311.42 858.56 311.42C857.682 311.42 856.866 311.635 856.11 312.064L855.928 311.238C856.73 310.799 857.608 310.58 858.56 310.58ZM856.558 315.998C856.558 316.418 856.688 316.749 856.95 316.992C857.211 317.225 857.561 317.342 858 317.342C858.644 317.342 859.199 317.113 859.666 316.656C860.142 316.189 860.38 315.62 860.38 314.948V314.164H859.638C858.658 314.164 857.897 314.332 857.356 314.668C856.824 314.995 856.558 315.438 856.558 315.998ZM869.73 317.132H870.948V319.68H870.01V318H863.57V310.72H864.592V317.132H868.708V310.72H869.73V317.132ZM873.548 316.572H873.576L877.72 310.72H878.868V318H877.804V312.148H877.79L873.632 318H872.484V310.72H873.548V316.572ZM882.64 314.528C882.08 314.407 881.618 314.197 881.254 313.898C880.899 313.59 880.722 313.179 880.722 312.666C880.722 311.303 881.818 310.622 884.012 310.622C884.786 310.622 885.542 310.673 886.28 310.776V318H885.216V314.878H884.25C883.736 314.878 883.377 314.943 883.172 315.074C882.976 315.195 882.752 315.513 882.5 316.026L881.562 318H880.484L881.506 315.942C881.73 315.494 881.921 315.172 882.08 314.976C882.248 314.78 882.434 314.64 882.64 314.556V314.528ZM885.216 314.094V311.504C884.842 311.448 884.455 311.42 884.054 311.42C882.514 311.42 881.744 311.863 881.744 312.75C881.744 313.646 882.565 314.094 884.208 314.094H885.216ZM895.847 318.14C894.792 318.14 894.008 317.715 893.495 316.866H893.467V321.08H892.445V310.72H893.425L893.439 311.952H893.467C893.98 311.037 894.773 310.58 895.847 310.58C896.761 310.58 897.48 310.907 898.003 311.56C898.525 312.204 898.787 313.137 898.787 314.36C898.787 315.555 898.516 316.483 897.975 317.146C897.443 317.809 896.733 318.14 895.847 318.14ZM897.779 314.36C897.779 313.408 897.587 312.68 897.205 312.176C896.831 311.672 896.304 311.42 895.623 311.42C894.979 311.42 894.456 311.672 894.055 312.176C893.663 312.68 893.467 313.375 893.467 314.262V314.458C893.467 315.363 893.667 316.063 894.069 316.558C894.47 317.053 894.988 317.3 895.623 317.3C896.285 317.3 896.808 317.048 897.191 316.544C897.583 316.031 897.779 315.303 897.779 314.36ZM903.13 310.58C904.147 310.58 904.875 310.79 905.314 311.21C905.753 311.63 905.972 312.321 905.972 313.282V316.04C905.972 316.703 906.042 317.356 906.182 318H905.202C905.127 317.636 905.081 317.207 905.062 316.712H905.034C904.782 317.16 904.418 317.51 903.942 317.762C903.466 318.014 902.929 318.14 902.332 318.14C901.66 318.14 901.123 317.953 900.722 317.58C900.321 317.197 900.12 316.684 900.12 316.04C900.12 315.228 900.475 314.584 901.184 314.108C901.893 313.623 902.901 313.38 904.208 313.38H904.95V313.31C904.95 312.601 904.815 312.111 904.544 311.84C904.283 311.56 903.811 311.42 903.13 311.42C902.253 311.42 901.436 311.635 900.68 312.064L900.498 311.238C901.301 310.799 902.178 310.58 903.13 310.58ZM901.128 315.998C901.128 316.418 901.259 316.749 901.52 316.992C901.781 317.225 902.131 317.342 902.57 317.342C903.214 317.342 903.769 317.113 904.236 316.656C904.712 316.189 904.95 315.62 904.95 314.948V314.164H904.208C903.228 314.164 902.467 314.332 901.926 314.668C901.394 314.995 901.128 315.438 901.128 315.998ZM911.29 318.14C910.273 318.14 909.479 317.818 908.91 317.174C908.35 316.521 908.07 315.597 908.07 314.402V311.322C908.07 310.025 908.383 309.087 909.008 308.508C909.643 307.929 910.651 307.64 912.032 307.64C912.741 307.64 913.418 307.593 914.062 307.5V308.34C913.465 308.433 912.788 308.48 912.032 308.48C910.94 308.48 910.175 308.69 909.736 309.11C909.307 309.521 909.092 310.244 909.092 311.28V312.078H909.12C909.624 311.266 910.427 310.86 911.528 310.86C912.377 310.86 913.068 311.191 913.6 311.854C914.141 312.507 914.412 313.389 914.412 314.5C914.412 315.657 914.137 316.553 913.586 317.188C913.035 317.823 912.27 318.14 911.29 318.14ZM913.404 314.5C913.404 313.632 913.208 312.951 912.816 312.456C912.433 311.952 911.925 311.7 911.29 311.7C910.618 311.7 910.081 311.933 909.68 312.4C909.288 312.867 909.092 313.52 909.092 314.36V314.542C909.092 315.382 909.288 316.054 909.68 316.558C910.081 317.053 910.604 317.3 911.248 317.3C911.92 317.3 912.447 317.057 912.83 316.572C913.213 316.077 913.404 315.387 913.404 314.5ZM920.978 312.204C920.558 311.681 919.979 311.42 919.242 311.42C918.505 311.42 917.921 311.681 917.492 312.204C917.072 312.717 916.862 313.436 916.862 314.36C916.862 315.284 917.072 316.007 917.492 316.53C917.921 317.043 918.505 317.3 919.242 317.3C919.979 317.3 920.558 317.043 920.978 316.53C921.407 316.007 921.622 315.284 921.622 314.36C921.622 313.436 921.407 312.717 920.978 312.204ZM921.734 317.118C921.109 317.799 920.278 318.14 919.242 318.14C918.206 318.14 917.375 317.799 916.75 317.118C916.125 316.437 915.812 315.517 915.812 314.36C915.812 313.203 916.125 312.283 916.75 311.602C917.375 310.921 918.206 310.58 919.242 310.58C920.278 310.58 921.109 310.921 921.734 311.602C922.359 312.283 922.672 313.203 922.672 314.36C922.672 315.517 922.359 316.437 921.734 317.118ZM929.046 310.72H930.068V318H929.046V315.55C928.421 315.849 927.688 315.998 926.848 315.998C925.84 315.998 925.136 315.821 924.734 315.466C924.342 315.102 924.146 314.467 924.146 313.562V310.72H925.154V313.366C925.154 314.066 925.28 314.537 925.532 314.78C925.794 315.013 926.288 315.13 927.016 315.13C927.81 315.13 928.486 314.985 929.046 314.696V310.72ZM933.239 316.572H933.267L937.411 310.72H938.559V318H937.495V312.148H937.481L933.323 318H932.175V310.72H933.239V316.572ZM943.493 313.618H943.521L945.425 310.72H946.587L944.109 314.304L946.657 318H945.453L943.479 314.976H943.451L941.491 318H940.315L942.877 314.304L940.385 310.72H941.589L943.493 313.618ZM952.464 310.72H957.784V311.602H953.542V318H952.464V310.72ZM962.798 318.14C961.743 318.14 960.959 317.715 960.446 316.866H960.418V321.08H959.396V310.72H960.376L960.39 311.952H960.418C960.931 311.037 961.724 310.58 962.798 310.58C963.712 310.58 964.431 310.907 964.954 311.56C965.476 312.204 965.738 313.137 965.738 314.36C965.738 315.555 965.467 316.483 964.926 317.146C964.394 317.809 963.684 318.14 962.798 318.14ZM964.73 314.36C964.73 313.408 964.538 312.68 964.156 312.176C963.782 311.672 963.255 311.42 962.574 311.42C961.93 311.42 961.407 311.672 961.006 312.176C960.614 312.68 960.418 313.375 960.418 314.262V314.458C960.418 315.363 960.618 316.063 961.02 316.558C961.421 317.053 961.939 317.3 962.574 317.3C963.236 317.3 963.759 317.048 964.142 316.544C964.534 316.031 964.73 315.303 964.73 314.36ZM972.629 310.72H973.749L970.921 318C970.436 319.251 969.918 320.1 969.367 320.548C968.816 320.996 968.037 321.22 967.029 321.22L966.973 320.366C967.729 320.366 968.312 320.203 968.723 319.876C969.134 319.559 969.521 318.933 969.885 318L966.931 310.72H968.079L970.417 316.754H970.445L972.629 310.72ZM975.282 310.72H981.442V318H980.42V311.588H976.304V318H975.282V310.72ZM983.54 310.72H989.7V318H988.678V311.588H984.562V318H983.54V310.72Z" fill="#333333"/>
<path d="M11.2584 527.864C12.229 527.715 13.1764 527.64 14.1004 527.64C15.3697 527.64 16.331 527.911 16.9844 528.452C17.647 528.984 17.9784 529.749 17.9784 530.748C17.9784 531.831 17.647 532.652 16.9844 533.212C16.3217 533.772 15.3604 534.052 14.1004 534.052C13.4844 534.052 12.9104 534.024 12.3784 533.968V538H11.2584V527.864ZM12.3784 533.044C12.9197 533.119 13.4657 533.156 14.0164 533.156C14.9404 533.156 15.645 532.955 16.1304 532.554C16.625 532.153 16.8724 531.579 16.8724 530.832C16.8724 530.085 16.6297 529.521 16.1444 529.138C15.6684 528.746 14.959 528.55 14.0164 528.55C13.503 528.55 12.957 528.597 12.3784 528.69V533.044ZM22.1729 530.58C23.1902 530.58 23.9182 530.79 24.3569 531.21C24.7956 531.63 25.0149 532.321 25.0149 533.282V536.04C25.0149 536.703 25.0849 537.356 25.2249 538H24.2449C24.1702 537.636 24.1236 537.207 24.1049 536.712H24.0769C23.8249 537.16 23.4609 537.51 22.9849 537.762C22.5089 538.014 21.9722 538.14 21.3749 538.14C20.7029 538.14 20.1662 537.953 19.7649 537.58C19.3636 537.197 19.1629 536.684 19.1629 536.04C19.1629 535.228 19.5176 534.584 20.2269 534.108C20.9362 533.623 21.9442 533.38 23.2509 533.38H23.9929V533.31C23.9929 532.601 23.8576 532.111 23.5869 531.84C23.3256 531.56 22.8542 531.42 22.1729 531.42C21.2956 531.42 20.4789 531.635 19.7229 532.064L19.5409 531.238C20.3436 530.799 21.2209 530.58 22.1729 530.58ZM20.1709 535.998C20.1709 536.418 20.3016 536.749 20.5629 536.992C20.8242 537.225 21.1742 537.342 21.6129 537.342C22.2569 537.342 22.8122 537.113 23.2789 536.656C23.7549 536.189 23.9929 535.62 23.9929 534.948V534.164H23.2509C22.2709 534.164 21.5102 534.332 20.9689 534.668C20.4369 534.995 20.1709 535.438 20.1709 535.998ZM29.4368 531.392C28.7181 531.392 27.9435 531.555 27.1128 531.882L26.8608 531.098C27.7381 530.753 28.6248 530.58 29.5208 530.58C30.5195 530.58 31.3035 530.748 31.8728 531.084C32.4421 531.42 32.7268 531.849 32.7268 532.372C32.7268 532.755 32.5681 533.105 32.2508 533.422C31.9428 533.739 31.4948 533.963 30.9068 534.094V534.122C31.5508 534.234 32.0315 534.472 32.3488 534.836C32.6755 535.191 32.8388 535.592 32.8388 536.04C32.8388 536.693 32.5495 537.207 31.9708 537.58C31.4015 537.953 30.5848 538.14 29.5208 538.14C28.6061 538.14 27.6868 537.967 26.7628 537.622L27.0148 536.838C27.8641 537.146 28.6855 537.3 29.4788 537.3C31.0001 537.3 31.7608 536.843 31.7608 535.928C31.7608 535.461 31.5228 535.111 31.0468 534.878C30.5708 534.645 29.7868 534.528 28.6948 534.528H28.0788V533.702H28.6948C30.6641 533.702 31.6488 533.305 31.6488 532.512C31.6488 531.765 30.9115 531.392 29.4368 531.392ZM37.9266 538.14C36.8719 538.14 36.0879 537.715 35.5746 536.866H35.5466V541.08H34.5246V530.72H35.5046L35.5186 531.952H35.5466C36.0599 531.037 36.8533 530.58 37.9266 530.58C38.8413 530.58 39.5599 530.907 40.0826 531.56C40.6053 532.204 40.8666 533.137 40.8666 534.36C40.8666 535.555 40.5959 536.483 40.0546 537.146C39.5226 537.809 38.8133 538.14 37.9266 538.14ZM39.8586 534.36C39.8586 533.408 39.6673 532.68 39.2846 532.176C38.9113 531.672 38.3839 531.42 37.7026 531.42C37.0586 531.42 36.5359 531.672 36.1346 532.176C35.7426 532.68 35.5466 533.375 35.5466 534.262V534.458C35.5466 535.363 35.7473 536.063 36.1486 536.558C36.5499 537.053 37.0679 537.3 37.7026 537.3C38.3653 537.3 38.8879 537.048 39.2706 536.544C39.6626 536.031 39.8586 535.303 39.8586 534.36ZM45.21 530.58C46.2273 530.58 46.9553 530.79 47.394 531.21C47.8327 531.63 48.052 532.321 48.052 533.282V536.04C48.052 536.703 48.122 537.356 48.262 538H47.282C47.2073 537.636 47.1607 537.207 47.142 536.712H47.114C46.862 537.16 46.498 537.51 46.022 537.762C45.546 538.014 45.0093 538.14 44.412 538.14C43.74 538.14 43.2033 537.953 42.802 537.58C42.4007 537.197 42.2 536.684 42.2 536.04C42.2 535.228 42.5547 534.584 43.264 534.108C43.9733 533.623 44.9813 533.38 46.288 533.38H47.03V533.31C47.03 532.601 46.8947 532.111 46.624 531.84C46.3627 531.56 45.8913 531.42 45.21 531.42C44.3327 531.42 43.516 531.635 42.76 532.064L42.578 531.238C43.3807 530.799 44.258 530.58 45.21 530.58ZM43.208 535.998C43.208 536.418 43.3387 536.749 43.6 536.992C43.8613 537.225 44.2113 537.342 44.65 537.342C45.294 537.342 45.8493 537.113 46.316 536.656C46.792 536.189 47.03 535.62 47.03 534.948V534.164H46.288C45.308 534.164 44.5473 534.332 44.006 534.668C43.474 534.995 43.208 535.438 43.208 535.998ZM53.3699 538.14C52.3526 538.14 51.5593 537.818 50.9899 537.174C50.4299 536.521 50.1499 535.597 50.1499 534.402V531.322C50.1499 530.025 50.4626 529.087 51.0879 528.508C51.7226 527.929 52.7306 527.64 54.1119 527.64C54.8213 527.64 55.4979 527.593 56.1419 527.5V528.34C55.5446 528.433 54.8679 528.48 54.1119 528.48C53.0199 528.48 52.2546 528.69 51.8159 529.11C51.3866 529.521 51.1719 530.244 51.1719 531.28V532.078H51.1999C51.7039 531.266 52.5066 530.86 53.6079 530.86C54.4573 530.86 55.1479 531.191 55.6799 531.854C56.2213 532.507 56.4919 533.389 56.4919 534.5C56.4919 535.657 56.2166 536.553 55.6659 537.188C55.1153 537.823 54.3499 538.14 53.3699 538.14ZM55.4839 534.5C55.4839 533.632 55.2879 532.951 54.8959 532.456C54.5133 531.952 54.0046 531.7 53.3699 531.7C52.6979 531.7 52.1613 531.933 51.7599 532.4C51.3679 532.867 51.1719 533.52 51.1719 534.36V534.542C51.1719 535.382 51.3679 536.054 51.7599 536.558C52.1613 537.053 52.6839 537.3 53.3279 537.3C53.9999 537.3 54.5273 537.057 54.9099 536.572C55.2926 536.077 55.4839 535.387 55.4839 534.5ZM63.058 532.204C62.638 531.681 62.0594 531.42 61.322 531.42C60.5847 531.42 60.0014 531.681 59.572 532.204C59.152 532.717 58.942 533.436 58.942 534.36C58.942 535.284 59.152 536.007 59.572 536.53C60.0014 537.043 60.5847 537.3 61.322 537.3C62.0594 537.3 62.638 537.043 63.058 536.53C63.4874 536.007 63.702 535.284 63.702 534.36C63.702 533.436 63.4874 532.717 63.058 532.204ZM63.814 537.118C63.1887 537.799 62.358 538.14 61.322 538.14C60.286 538.14 59.4554 537.799 58.83 537.118C58.2047 536.437 57.892 535.517 57.892 534.36C57.892 533.203 58.2047 532.283 58.83 531.602C59.4554 530.921 60.286 530.58 61.322 530.58C62.358 530.58 63.1887 530.921 63.814 531.602C64.4394 532.283 64.752 533.203 64.752 534.36C64.752 535.517 64.4394 536.437 63.814 537.118ZM72.3724 531.574H69.7124V538H68.6064V531.574H65.9464V530.72H72.3724V531.574ZM75.156 533.8L78.67 530.72H80.014L75.968 534.206L80.126 538H78.796L75.156 534.626H75.142V538H74.05V530.72H75.142V533.8H75.156ZM84.462 530.58C85.4793 530.58 86.2073 530.79 86.646 531.21C87.0846 531.63 87.304 532.321 87.304 533.282V536.04C87.304 536.703 87.374 537.356 87.514 538H86.534C86.4593 537.636 86.4126 537.207 86.394 536.712H86.366C86.114 537.16 85.75 537.51 85.274 537.762C84.798 538.014 84.2613 538.14 83.664 538.14C82.992 538.14 82.4553 537.953 82.054 537.58C81.6526 537.197 81.452 536.684 81.452 536.04C81.452 535.228 81.8066 534.584 82.516 534.108C83.2253 533.623 84.2333 533.38 85.54 533.38H86.282V533.31C86.282 532.601 86.1466 532.111 85.876 531.84C85.6146 531.56 85.1433 531.42 84.462 531.42C83.5846 531.42 82.768 531.635 82.012 532.064L81.83 531.238C82.6326 530.799 83.51 530.58 84.462 530.58ZM82.46 535.998C82.46 536.418 82.5906 536.749 82.852 536.992C83.1133 537.225 83.4633 537.342 83.902 537.342C84.546 537.342 85.1013 537.113 85.568 536.656C86.044 536.189 86.282 535.62 86.282 534.948V534.164H85.54C84.56 534.164 83.7993 534.332 83.258 534.668C82.726 534.995 82.46 535.438 82.46 535.998ZM94.5964 536.572H94.6244L98.7684 530.72H99.9164V538H98.8524V532.148H98.8384L94.6804 538H93.5324V530.72H94.5964V536.572ZM102.023 530.72H107.343V531.602H103.101V538H102.023V530.72ZM112.356 538.14C111.302 538.14 110.518 537.715 110.004 536.866H109.976V541.08H108.954V530.72H109.934L109.948 531.952H109.976C110.49 531.037 111.283 530.58 112.356 530.58C113.271 530.58 113.99 530.907 114.512 531.56C115.035 532.204 115.296 533.137 115.296 534.36C115.296 535.555 115.026 536.483 114.484 537.146C113.952 537.809 113.243 538.14 112.356 538.14ZM114.288 534.36C114.288 533.408 114.097 532.68 113.714 532.176C113.341 531.672 112.814 531.42 112.132 531.42C111.488 531.42 110.966 531.672 110.564 532.176C110.172 532.68 109.976 533.375 109.976 534.262V534.458C109.976 535.363 110.177 536.063 110.578 536.558C110.98 537.053 111.498 537.3 112.132 537.3C112.795 537.3 113.318 537.048 113.7 536.544C114.092 536.031 114.288 535.303 114.288 534.36ZM121.656 532.204C121.236 531.681 120.657 531.42 119.92 531.42C119.182 531.42 118.599 531.681 118.17 532.204C117.75 532.717 117.54 533.436 117.54 534.36C117.54 535.284 117.75 536.007 118.17 536.53C118.599 537.043 119.182 537.3 119.92 537.3C120.657 537.3 121.236 537.043 121.656 536.53C122.085 536.007 122.3 535.284 122.3 534.36C122.3 533.436 122.085 532.717 121.656 532.204ZM122.412 537.118C121.786 537.799 120.956 538.14 119.92 538.14C118.884 538.14 118.053 537.799 117.428 537.118C116.802 536.437 116.49 535.517 116.49 534.36C116.49 533.203 116.802 532.283 117.428 531.602C118.053 530.921 118.884 530.58 119.92 530.58C120.956 530.58 121.786 530.921 122.412 531.602C123.037 532.283 123.35 533.203 123.35 534.36C123.35 535.517 123.037 536.437 122.412 537.118ZM124.964 530.72H131.124V538H130.102V531.588H125.986V538H124.964V530.72ZM136.624 538.14C135.569 538.14 134.785 537.715 134.272 536.866H134.244V541.08H133.222V530.72H134.202L134.216 531.952H134.244C134.757 531.037 135.551 530.58 136.624 530.58C137.539 530.58 138.257 530.907 138.78 531.56C139.303 532.204 139.564 533.137 139.564 534.36C139.564 535.555 139.293 536.483 138.752 537.146C138.22 537.809 137.511 538.14 136.624 538.14ZM138.556 534.36C138.556 533.408 138.365 532.68 137.982 532.176C137.609 531.672 137.081 531.42 136.4 531.42C135.756 531.42 135.233 531.672 134.832 532.176C134.44 532.68 134.244 533.375 134.244 534.262V534.458C134.244 535.363 134.445 536.063 134.846 536.558C135.247 537.053 135.765 537.3 136.4 537.3C137.063 537.3 137.585 537.048 137.968 536.544C138.36 536.031 138.556 535.303 138.556 534.36ZM143.907 530.58C144.925 530.58 145.653 530.79 146.091 531.21C146.53 531.63 146.749 532.321 146.749 533.282V536.04C146.749 536.703 146.819 537.356 146.959 538H145.979C145.905 537.636 145.858 537.207 145.839 536.712H145.811C145.559 537.16 145.195 537.51 144.719 537.762C144.243 538.014 143.707 538.14 143.109 538.14C142.437 538.14 141.901 537.953 141.499 537.58C141.098 537.197 140.897 536.684 140.897 536.04C140.897 535.228 141.252 534.584 141.961 534.108C142.671 533.623 143.679 533.38 144.985 533.38H145.727V533.31C145.727 532.601 145.592 532.111 145.321 531.84C145.06 531.56 144.589 531.42 143.907 531.42C143.03 531.42 142.213 531.635 141.457 532.064L141.275 531.238C142.078 530.799 142.955 530.58 143.907 530.58ZM141.905 535.998C141.905 536.418 142.036 536.749 142.297 536.992C142.559 537.225 142.909 537.342 143.347 537.342C143.991 537.342 144.547 537.113 145.013 536.656C145.489 536.189 145.727 535.62 145.727 534.948V534.164H144.985C144.005 534.164 143.245 534.332 142.703 534.668C142.171 534.995 141.905 535.438 141.905 535.998ZM150.023 533.8L153.537 530.72H154.881L150.835 534.206L154.993 538H153.663L150.023 534.626H150.009V538H148.917V530.72H150.009V533.8H150.023ZM162.675 531.574H160.015V538H158.909V531.574H156.249V530.72H162.675V531.574ZM165.417 536.572H165.445L169.589 530.72H170.737V538H169.673V532.148H169.659L165.501 538H164.353V530.72H165.417V536.572ZM177.603 530.72H178.625V538H177.603V535.55C176.978 535.849 176.245 535.998 175.405 535.998C174.397 535.998 173.692 535.821 173.291 535.466C172.899 535.102 172.703 534.467 172.703 533.562V530.72H173.711V533.366C173.711 534.066 173.837 534.537 174.089 534.78C174.35 535.013 174.845 535.13 175.573 535.13C176.366 535.13 177.043 534.985 177.603 534.696V530.72ZM181.292 533.94H185.772C185.762 533.128 185.566 532.503 185.184 532.064C184.801 531.625 184.274 531.406 183.602 531.406C182.902 531.406 182.346 531.63 181.936 532.078C181.534 532.517 181.32 533.137 181.292 533.94ZM181.292 534.752C181.31 535.545 181.553 536.171 182.02 536.628C182.486 537.085 183.093 537.314 183.84 537.314C184.558 537.314 185.272 537.127 185.982 536.754L186.262 537.552C185.478 537.944 184.638 538.14 183.742 538.14C182.696 538.14 181.852 537.799 181.208 537.118C180.564 536.437 180.242 535.517 180.242 534.36C180.242 533.184 180.54 532.26 181.138 531.588C181.744 530.916 182.566 530.58 183.602 530.58C184.61 530.58 185.389 530.902 185.94 531.546C186.5 532.181 186.78 533.095 186.78 534.29C186.78 534.411 186.77 534.565 186.752 534.752H181.292ZM191.648 531.434C190.827 531.434 190.188 531.691 189.73 532.204C189.273 532.708 189.044 533.427 189.044 534.36C189.044 535.256 189.282 535.97 189.758 536.502C190.244 537.034 190.874 537.3 191.648 537.3C192.302 537.3 192.927 537.141 193.524 536.824L193.804 537.65C193.104 537.977 192.372 538.14 191.606 538.14C190.524 538.14 189.646 537.799 188.974 537.118C188.302 536.427 187.966 535.508 187.966 534.36C187.966 533.175 188.288 532.251 188.932 531.588C189.576 530.916 190.468 530.58 191.606 530.58C192.372 530.58 193.104 530.743 193.804 531.07L193.524 531.924C192.899 531.597 192.274 531.434 191.648 531.434ZM196.877 533.8L200.391 530.72H201.735L197.689 534.206L201.847 538H200.517L196.877 534.626H196.863V538H195.771V530.72H196.863V533.8H196.877ZM204.587 536.572H204.615L208.759 530.72H209.907V538H208.843V532.148H208.829L204.671 538H203.523V530.72H204.587V536.572ZM214.841 533.618H214.869L216.773 530.72H217.935L215.457 534.304L218.005 538H216.801L214.827 534.976H214.799L212.839 538H211.663L214.225 534.304L211.733 530.72H212.937L214.841 533.618ZM228.432 541.08H227.41V537.482H227.382C226.962 537.921 226.458 538.14 225.87 538.14C225.104 538.14 224.498 537.823 224.05 537.188C223.611 536.544 223.392 535.601 223.392 534.36C223.392 533.119 223.611 532.181 224.05 531.546C224.498 530.902 225.104 530.58 225.87 530.58C226.458 530.58 226.962 530.799 227.382 531.238H227.41V527.5H228.432V531.238H228.46C228.88 530.799 229.384 530.58 229.972 530.58C230.737 530.58 231.339 530.902 231.778 531.546C232.226 532.181 232.45 533.119 232.45 534.36C232.45 535.601 232.226 536.544 231.778 537.188C231.339 537.823 230.737 538.14 229.972 538.14C229.384 538.14 228.88 537.921 228.46 537.482H228.432V541.08ZM230.98 536.53C231.269 536.035 231.414 535.312 231.414 534.36C231.414 533.408 231.269 532.685 230.98 532.19C230.7 531.695 230.294 531.448 229.762 531.448C229.258 531.448 228.814 531.705 228.432 532.218V536.502C228.814 537.015 229.258 537.272 229.762 537.272C230.294 537.272 230.7 537.025 230.98 536.53ZM224.848 532.19C224.558 532.685 224.414 533.408 224.414 534.36C224.414 535.312 224.558 536.035 224.848 536.53C225.137 537.025 225.548 537.272 226.08 537.272C226.584 537.272 227.027 537.015 227.41 536.502V532.218C227.027 531.705 226.584 531.448 226.08 531.448C225.548 531.448 225.137 531.695 224.848 532.19ZM238.81 532.204C238.39 531.681 237.811 531.42 237.074 531.42C236.337 531.42 235.753 531.681 235.324 532.204C234.904 532.717 234.694 533.436 234.694 534.36C234.694 535.284 234.904 536.007 235.324 536.53C235.753 537.043 236.337 537.3 237.074 537.3C237.811 537.3 238.39 537.043 238.81 536.53C239.239 536.007 239.454 535.284 239.454 534.36C239.454 533.436 239.239 532.717 238.81 532.204ZM239.566 537.118C238.941 537.799 238.11 538.14 237.074 538.14C236.038 538.14 235.207 537.799 234.582 537.118C233.957 536.437 233.644 535.517 233.644 534.36C233.644 533.203 233.957 532.283 234.582 531.602C235.207 530.921 236.038 530.58 237.074 530.58C238.11 530.58 238.941 530.921 239.566 531.602C240.191 532.283 240.504 533.203 240.504 534.36C240.504 535.517 240.191 536.437 239.566 537.118ZM245.52 538.14C244.466 538.14 243.682 537.715 243.168 536.866H243.14V541.08H242.118V530.72H243.098L243.112 531.952H243.14C243.654 531.037 244.447 530.58 245.52 530.58C246.435 530.58 247.154 530.907 247.676 531.56C248.199 532.204 248.46 533.137 248.46 534.36C248.46 535.555 248.19 536.483 247.648 537.146C247.116 537.809 246.407 538.14 245.52 538.14ZM247.452 534.36C247.452 533.408 247.261 532.68 246.878 532.176C246.505 531.672 245.978 531.42 245.296 531.42C244.652 531.42 244.13 531.672 243.728 532.176C243.336 532.68 243.14 533.375 243.14 534.262V534.458C243.14 535.363 243.341 536.063 243.742 536.558C244.144 537.053 244.662 537.3 245.296 537.3C245.959 537.3 246.482 537.048 246.864 536.544C247.256 536.031 247.452 535.303 247.452 534.36ZM257.214 532.12L254.68 535.844H253.742L251.208 532.12H251.18V538H250.144V530.72H251.376L254.204 535.06H254.218L257.046 530.72H258.292V538H257.242V532.12H257.214ZM263.058 530.58C264.075 530.58 264.803 530.79 265.242 531.21C265.68 531.63 265.9 532.321 265.9 533.282V536.04C265.9 536.703 265.97 537.356 266.11 538H265.13C265.055 537.636 265.008 537.207 264.99 536.712H264.962C264.71 537.16 264.346 537.51 263.87 537.762C263.394 538.014 262.857 538.14 262.26 538.14C261.588 538.14 261.051 537.953 260.65 537.58C260.248 537.197 260.048 536.684 260.048 536.04C260.048 535.228 260.402 534.584 261.112 534.108C261.821 533.623 262.829 533.38 264.136 533.38H264.878V533.31C264.878 532.601 264.742 532.111 264.472 531.84C264.21 531.56 263.739 531.42 263.058 531.42C262.18 531.42 261.364 531.635 260.608 532.064L260.426 531.238C261.228 530.799 262.106 530.58 263.058 530.58ZM261.056 535.998C261.056 536.418 261.186 536.749 261.448 536.992C261.709 537.225 262.059 537.342 262.498 537.342C263.142 537.342 263.697 537.113 264.164 536.656C264.64 536.189 264.878 535.62 264.878 534.948V534.164H264.136C263.156 534.164 262.395 534.332 261.854 534.668C261.322 534.995 261.056 535.438 261.056 535.998ZM274.074 531.574H271.414V538H270.308V531.574H267.648V530.72H274.074V531.574ZM280.427 532.204C280.007 531.681 279.429 531.42 278.691 531.42C277.954 531.42 277.371 531.681 276.941 532.204C276.521 532.717 276.311 533.436 276.311 534.36C276.311 535.284 276.521 536.007 276.941 536.53C277.371 537.043 277.954 537.3 278.691 537.3C279.429 537.3 280.007 537.043 280.427 536.53C280.857 536.007 281.071 535.284 281.071 534.36C281.071 533.436 280.857 532.717 280.427 532.204ZM281.183 537.118C280.558 537.799 279.727 538.14 278.691 538.14C277.655 538.14 276.825 537.799 276.199 537.118C275.574 536.437 275.261 535.517 275.261 534.36C275.261 533.203 275.574 532.283 276.199 531.602C276.825 530.921 277.655 530.58 278.691 530.58C279.727 530.58 280.558 530.921 281.183 531.602C281.809 532.283 282.121 533.203 282.121 534.36C282.121 535.517 281.809 536.437 281.183 537.118ZM284.8 537.272C285.145 537.328 285.523 537.356 285.934 537.356C287.492 537.356 288.272 536.847 288.272 535.83C288.272 534.906 287.446 534.444 285.794 534.444H284.8V537.272ZM284.8 533.744H285.78C286.452 533.744 286.974 533.632 287.348 533.408C287.721 533.184 287.908 532.876 287.908 532.484C287.908 531.737 287.222 531.364 285.85 531.364C285.486 531.364 285.136 531.392 284.8 531.448V533.744ZM289.308 535.9C289.308 537.365 288.169 538.098 285.892 538.098C285.061 538.098 284.342 538.047 283.736 537.944V530.776C284.398 530.673 285.08 530.622 285.78 530.622C286.909 530.622 287.712 530.79 288.188 531.126C288.673 531.453 288.916 531.873 288.916 532.386C288.916 532.806 288.771 533.161 288.482 533.45C288.192 533.73 287.786 533.926 287.264 534.038V534.052C287.926 534.155 288.43 534.369 288.776 534.696C289.13 535.013 289.308 535.415 289.308 535.9Z" fill="#333333"/>
<path d="M866.448 49.016H866.42V54H865.3V43.78H866.42V48.33H866.448L870.984 43.78H872.342L867.428 48.68L872.482 54H871.138L866.448 49.016ZM878.696 48.204C878.276 47.6813 877.697 47.42 876.96 47.42C876.222 47.42 875.639 47.6813 875.21 48.204C874.79 48.7173 874.58 49.436 874.58 50.36C874.58 51.284 874.79 52.0073 875.21 52.53C875.639 53.0433 876.222 53.3 876.96 53.3C877.697 53.3 878.276 53.0433 878.696 52.53C879.125 52.0073 879.34 51.284 879.34 50.36C879.34 49.436 879.125 48.7173 878.696 48.204ZM879.452 53.118C878.826 53.7993 877.996 54.14 876.96 54.14C875.924 54.14 875.093 53.7993 874.468 53.118C873.842 52.4367 873.53 51.5173 873.53 50.36C873.53 49.2027 873.842 48.2833 874.468 47.602C875.093 46.9207 875.924 46.58 876.96 46.58C877.996 46.58 878.826 46.9207 879.452 47.602C880.077 48.2833 880.39 49.2027 880.39 50.36C880.39 51.5173 880.077 52.4367 879.452 53.118ZM889.074 48.12L886.54 51.844H885.602L883.068 48.12H883.04V54H882.004V46.72H883.236L886.064 51.06H886.078L888.906 46.72H890.152V54H889.102V48.12H889.074ZM894.918 46.58C895.935 46.58 896.663 46.79 897.102 47.21C897.541 47.63 897.76 48.3207 897.76 49.282V52.04C897.76 52.7027 897.83 53.356 897.97 54H896.99C896.915 53.636 896.869 53.2067 896.85 52.712H896.822C896.57 53.16 896.206 53.51 895.73 53.762C895.254 54.014 894.717 54.14 894.12 54.14C893.448 54.14 892.911 53.9533 892.51 53.58C892.109 53.1973 891.908 52.684 891.908 52.04C891.908 51.228 892.263 50.584 892.972 50.108C893.681 49.6227 894.689 49.38 895.996 49.38H896.738V49.31C896.738 48.6007 896.603 48.1107 896.332 47.84C896.071 47.56 895.599 47.42 894.918 47.42C894.041 47.42 893.224 47.6347 892.468 48.064L892.286 47.238C893.089 46.7993 893.966 46.58 894.918 46.58ZM892.916 51.998C892.916 52.418 893.047 52.7493 893.308 52.992C893.569 53.2253 893.919 53.342 894.358 53.342C895.002 53.342 895.557 53.1133 896.024 52.656C896.5 52.1893 896.738 51.62 896.738 50.948V50.164H895.996C895.016 50.164 894.255 50.332 893.714 50.668C893.182 50.9947 892.916 51.438 892.916 51.998ZM901.02 50.5V54H899.928V46.72H901.02V49.688H905.15V46.72H906.242V54H905.15V50.5H901.02ZM909.736 53.16H913.586V47.56H910.576C910.576 48.4467 910.576 49.0673 910.576 49.422C910.576 49.7767 910.562 50.192 910.534 50.668C910.515 51.1347 910.492 51.438 910.464 51.578C910.445 51.7087 910.399 51.8953 910.324 52.138C910.249 52.3807 910.17 52.558 910.086 52.67C910.011 52.7727 909.895 52.936 909.736 53.16ZM908.518 53.16C908.723 52.908 908.868 52.7307 908.952 52.628C909.036 52.516 909.129 52.3387 909.232 52.096C909.335 51.844 909.395 51.6527 909.414 51.522C909.442 51.382 909.47 51.088 909.498 50.64C909.535 50.1827 909.554 49.772 909.554 49.408C909.554 49.0347 909.554 48.4187 909.554 47.56V46.72H914.608V53.16H915.588V55.68H914.566V54H908.868V55.68H907.846V53.16H908.518ZM918.288 50.5V54H917.196V46.72H918.288V49.688H922.418V46.72H923.51V54H922.418V50.5H918.288ZM928.264 46.58C929.281 46.58 930.009 46.79 930.448 47.21C930.886 47.63 931.106 48.3207 931.106 49.282V52.04C931.106 52.7027 931.176 53.356 931.316 54H930.336C930.261 53.636 930.214 53.2067 930.196 52.712H930.168C929.916 53.16 929.552 53.51 929.076 53.762C928.6 54.014 928.063 54.14 927.466 54.14C926.794 54.14 926.257 53.9533 925.856 53.58C925.454 53.1973 925.254 52.684 925.254 52.04C925.254 51.228 925.608 50.584 926.318 50.108C927.027 49.6227 928.035 49.38 929.342 49.38H930.084V49.31C930.084 48.6007 929.948 48.1107 929.678 47.84C929.416 47.56 928.945 47.42 928.264 47.42C927.386 47.42 926.57 47.6347 925.814 48.064L925.632 47.238C926.434 46.7993 927.312 46.58 928.264 46.58ZM926.262 51.998C926.262 52.418 926.392 52.7493 926.654 52.992C926.915 53.2253 927.265 53.342 927.704 53.342C928.348 53.342 928.903 53.1133 929.37 52.656C929.846 52.1893 930.084 51.62 930.084 50.948V50.164H929.342C928.362 50.164 927.601 50.332 927.06 50.668C926.528 50.9947 926.262 51.438 926.262 51.998ZM934.94 50.528C934.38 50.4067 933.918 50.1967 933.554 49.898C933.199 49.59 933.022 49.1793 933.022 48.666C933.022 47.3033 934.118 46.622 936.312 46.622C937.086 46.622 937.842 46.6733 938.58 46.776V54H937.516V50.878H936.55C936.036 50.878 935.677 50.9433 935.472 51.074C935.276 51.1953 935.052 51.5127 934.8 52.026L933.862 54H932.784L933.806 51.942C934.03 51.494 934.221 51.172 934.38 50.976C934.548 50.78 934.734 50.64 934.94 50.556V50.528ZM937.516 50.094V47.504C937.142 47.448 936.755 47.42 936.354 47.42C934.814 47.42 934.044 47.8633 934.044 48.75C934.044 49.646 934.865 50.094 936.508 50.094H937.516ZM948.146 54.14C947.092 54.14 946.308 53.7153 945.794 52.866H945.766V57.08H944.744V46.72H945.724L945.738 47.952H945.766C946.28 47.0373 947.073 46.58 948.146 46.58C949.061 46.58 949.78 46.9067 950.302 47.56C950.825 48.204 951.086 49.1373 951.086 50.36C951.086 51.5547 950.816 52.4833 950.274 53.146C949.742 53.8087 949.033 54.14 948.146 54.14ZM950.078 50.36C950.078 49.408 949.887 48.68 949.504 48.176C949.131 47.672 948.604 47.42 947.922 47.42C947.278 47.42 946.756 47.672 946.354 48.176C945.962 48.68 945.766 49.3753 945.766 50.262V50.458C945.766 51.3633 945.967 52.0633 946.368 52.558C946.77 53.0527 947.288 53.3 947.922 53.3C948.585 53.3 949.108 53.048 949.49 52.544C949.882 52.0307 950.078 51.3027 950.078 50.36ZM955.43 46.58C956.447 46.58 957.175 46.79 957.614 47.21C958.052 47.63 958.272 48.3207 958.272 49.282V52.04C958.272 52.7027 958.342 53.356 958.482 54H957.502C957.427 53.636 957.38 53.2067 957.362 52.712H957.334C957.082 53.16 956.718 53.51 956.242 53.762C955.766 54.014 955.229 54.14 954.632 54.14C953.96 54.14 953.423 53.9533 953.022 53.58C952.62 53.1973 952.42 52.684 952.42 52.04C952.42 51.228 952.774 50.584 953.484 50.108C954.193 49.6227 955.201 49.38 956.508 49.38H957.25V49.31C957.25 48.6007 957.114 48.1107 956.844 47.84C956.582 47.56 956.111 47.42 955.43 47.42C954.552 47.42 953.736 47.6347 952.98 48.064L952.798 47.238C953.6 46.7993 954.478 46.58 955.43 46.58ZM953.428 51.998C953.428 52.418 953.558 52.7493 953.82 52.992C954.081 53.2253 954.431 53.342 954.87 53.342C955.514 53.342 956.069 53.1133 956.536 52.656C957.012 52.1893 957.25 51.62 957.25 50.948V50.164H956.508C955.528 50.164 954.767 50.332 954.226 50.668C953.694 50.9947 953.428 51.438 953.428 51.998ZM963.59 54.14C962.572 54.14 961.779 53.818 961.21 53.174C960.65 52.5207 960.37 51.5967 960.37 50.402V47.322C960.37 46.0247 960.682 45.0867 961.308 44.508C961.942 43.9293 962.95 43.64 964.332 43.64C965.041 43.64 965.718 43.5933 966.362 43.5V44.34C965.764 44.4333 965.088 44.48 964.332 44.48C963.24 44.48 962.474 44.69 962.036 45.11C961.606 45.5207 961.392 46.244 961.392 47.28V48.078H961.42C961.924 47.266 962.726 46.86 963.828 46.86C964.677 46.86 965.368 47.1913 965.9 47.854C966.441 48.5073 966.712 49.3893 966.712 50.5C966.712 51.6573 966.436 52.5533 965.886 53.188C965.335 53.8227 964.57 54.14 963.59 54.14ZM965.704 50.5C965.704 49.632 965.508 48.9507 965.116 48.456C964.733 47.952 964.224 47.7 963.59 47.7C962.918 47.7 962.381 47.9333 961.98 48.4C961.588 48.8667 961.392 49.52 961.392 50.36V50.542C961.392 51.382 961.588 52.054 961.98 52.558C962.381 53.0527 962.904 53.3 963.548 53.3C964.22 53.3 964.747 53.0573 965.13 52.572C965.512 52.0773 965.704 51.3867 965.704 50.5ZM973.278 48.204C972.858 47.6813 972.279 47.42 971.542 47.42C970.804 47.42 970.221 47.6813 969.792 48.204C969.372 48.7173 969.162 49.436 969.162 50.36C969.162 51.284 969.372 52.0073 969.792 52.53C970.221 53.0433 970.804 53.3 971.542 53.3C972.279 53.3 972.858 53.0433 973.278 52.53C973.707 52.0073 973.922 51.284 973.922 50.36C973.922 49.436 973.707 48.7173 973.278 48.204ZM974.034 53.118C973.408 53.7993 972.578 54.14 971.542 54.14C970.506 54.14 969.675 53.7993 969.05 53.118C968.424 52.4367 968.112 51.5173 968.112 50.36C968.112 49.2027 968.424 48.2833 969.05 47.602C969.675 46.9207 970.506 46.58 971.542 46.58C972.578 46.58 973.408 46.9207 974.034 47.602C974.659 48.2833 974.972 49.2027 974.972 50.36C974.972 51.5173 974.659 52.4367 974.034 53.118ZM982.592 47.574H979.932V54H978.826V47.574H976.166V46.72H982.592V47.574ZM986.93 46.58C987.947 46.58 988.675 46.79 989.114 47.21C989.552 47.63 989.772 48.3207 989.772 49.282V52.04C989.772 52.7027 989.842 53.356 989.982 54H989.002C988.927 53.636 988.88 53.2067 988.862 52.712H988.834C988.582 53.16 988.218 53.51 987.742 53.762C987.266 54.014 986.729 54.14 986.132 54.14C985.46 54.14 984.923 53.9533 984.522 53.58C984.12 53.1973 983.92 52.684 983.92 52.04C983.92 51.228 984.274 50.584 984.984 50.108C985.693 49.6227 986.701 49.38 988.008 49.38H988.75V49.31C988.75 48.6007 988.614 48.1107 988.344 47.84C988.082 47.56 987.611 47.42 986.93 47.42C986.052 47.42 985.236 47.6347 984.48 48.064L984.298 47.238C985.1 46.7993 985.978 46.58 986.93 46.58ZM984.928 51.998C984.928 52.418 985.058 52.7493 985.32 52.992C985.581 53.2253 985.931 53.342 986.37 53.342C987.014 53.342 987.569 53.1133 988.036 52.656C988.512 52.1893 988.75 51.62 988.75 50.948V50.164H988.008C987.028 50.164 986.267 50.332 985.726 50.668C985.194 50.9947 984.928 51.438 984.928 51.998Z" fill="#333333"/>
<path d="M991 68H580" stroke="#666666" stroke-width="2"/>
<path d="M14.5 64H231.5L309 141.5" stroke="#666666" stroke-width="2"/>
<path d="M9.5 332.5H187H272.5" stroke="#666666" stroke-width="2"/>
<defs>
<filter id="filter0_i" x="217" y="0" width="543" height="547" filterUnits="userSpaceOnUse" color-interpolation-filters="sRGB">
<feFlood flood-opacity="0" result="BackgroundImageFix"/>
<feBlend mode="normal" in="SourceGraphic" in2="BackgroundImageFix" result="shape"/>
<feColorMatrix in="SourceAlpha" type="matrix" values="0 0 0 0 0 0 0 0 0 0 0 0 0 0 0 0 0 0 127 0" result="hardAlpha"/>
<feOffset dy="4"/>
<feGaussianBlur stdDeviation="2"/>
<feComposite in2="hardAlpha" operator="arithmetic" k2="-1" k3="1"/>
<feColorMatrix type="matrix" values="0 0 0 0 0 0 0 0 0 0 0 0 0 0 0 0 0 0 0.25 0"/>
<feBlend mode="normal" in2="shape" result="effect1_innerShadow"/>
</filter>
<filter id="filter1_i" x="217" y="-0.00012207" width="507.172" height="547" filterUnits="userSpaceOnUse" color-interpolation-filters="sRGB">
<feFlood flood-opacity="0" result="BackgroundImageFix"/>
<feBlend mode="normal" in="SourceGraphic" in2="BackgroundImageFix" result="shape"/>
<feColorMatrix in="SourceAlpha" type="matrix" values="0 0 0 0 0 0 0 0 0 0 0 0 0 0 0 0 0 0 127 0" result="hardAlpha"/>
<feOffset dy="4"/>
<feGaussianBlur stdDeviation="2"/>
<feComposite in2="hardAlpha" operator="arithmetic" k2="-1" k3="1"/>
<feColorMatrix type="matrix" values="0 0 0 0 0 0 0 0 0 0 0 0 0 0 0 0 0 0 0.25 0"/>
<feBlend mode="normal" in2="shape" result="effect1_innerShadow"/>
</filter>
<filter id="filter2_i" x="217" y="0" width="486.859" height="547" filterUnits="userSpaceOnUse" color-interpolation-filters="sRGB">
<feFlood flood-opacity="0" result="BackgroundImageFix"/>
<feBlend mode="normal" in="SourceGraphic" in2="BackgroundImageFix" result="shape"/>
<feColorMatrix in="SourceAlpha" type="matrix" values="0 0 0 0 0 0 0 0 0 0 0 0 0 0 0 0 0 0 127 0" result="hardAlpha"/>
<feOffset dy="4"/>
<feGaussianBlur stdDeviation="2"/>
<feComposite in2="hardAlpha" operator="arithmetic" k2="-1" k3="1"/>
<feColorMatrix type="matrix" values="0 0 0 0 0 0 0 0 0 0 0 0 0 0 0 0 0 0 0.25 0"/>
<feBlend mode="normal" in2="shape" result="effect1_innerShadow"/>
</filter>
<filter id="filter3_i" x="217" y="162.07" width="488.013" height="384.931" filterUnits="userSpaceOnUse" color-interpolation-filters="sRGB">
<feFlood flood-opacity="0" result="BackgroundImageFix"/>
<feBlend mode="normal" in="SourceGraphic" in2="BackgroundImageFix" result="shape"/>
<feColorMatrix in="SourceAlpha" type="matrix" values="0 0 0 0 0 0 0 0 0 0 0 0 0 0 0 0 0 0 127 0" result="hardAlpha"/>
<feOffset dy="4"/>
<feGaussianBlur stdDeviation="2"/>
<feComposite in2="hardAlpha" operator="arithmetic" k2="-1" k3="1"/>
<feColorMatrix type="matrix" values="0 0 0 0 0 0 0 0 0 0 0 0 0 0 0 0 0 0 0.25 0"/>
<feBlend mode="normal" in2="shape" result="effect1_innerShadow"/>
</filter>
<filter id="filter4_i" x="338.834" y="271.5" width="376.188" height="275.501" filterUnits="userSpaceOnUse" color-interpolation-filters="sRGB">
<feFlood flood-opacity="0" result="BackgroundImageFix"/>
<feBlend mode="normal" in="SourceGraphic" in2="BackgroundImageFix" result="shape"/>
<feColorMatrix in="SourceAlpha" type="matrix" values="0 0 0 0 0 0 0 0 0 0 0 0 0 0 0 0 0 0 127 0" result="hardAlpha"/>
<feOffset dy="4"/>
<feGaussianBlur stdDeviation="2"/>
<feComposite in2="hardAlpha" operator="arithmetic" k2="-1" k3="1"/>
<feColorMatrix type="matrix" values="0 0 0 0 0 0 0 0 0 0 0 0 0 0 0 0 0 0 0.25 0"/>
<feBlend mode="normal" in2="shape" result="effect1_innerShadow"/>
</filter>
</defs>
</svg>
